<?xml version="1.0" encoding="UTF-8"?>
<svg xmlns="http://www.w3.org/2000/svg" xmlns:xlink="http://www.w3.org/1999/xlink" width="40px" height="40px" viewBox="0 0 40 40" version="1.1">
<g id="surface1">
<path style=" stroke:none;fill-rule:nonzero;fill:rgb(100%,53.333333%,24.313725%);fill-opacity:1;" d="M 7.25 4.042969 C 6.878906 5.171875 6.546875 6.308594 6.253906 7.445312 L 8.507812 8.722656 L 5.671875 10 C 4.324219 16.722656 4.375 23.511719 5.675781 30 L 8.507812 31.277344 L 6.257812 32.554688 C 6.550781 33.699219 6.882812 34.835938 7.25 35.957031 L 16.167969 37.660156 L 16.167969 2.339844 Z M 7.25 4.042969 "/>
<path style=" stroke:none;fill-rule:nonzero;fill:rgb(100%,40%,21.960784%);fill-opacity:1;" d="M 34.324219 10 L 31.488281 8.722656 L 33.742188 7.445312 C 33.453125 6.308594 33.121094 5.171875 32.746094 4.042969 L 28.933594 2.339844 L 28.933594 37.660156 L 32.746094 35.957031 C 33.117188 34.835938 33.449219 33.699219 33.738281 32.554688 L 31.488281 31.277344 L 34.320312 30 C 35.625 23.511719 35.675781 16.722656 34.324219 10 Z M 34.324219 10 "/>
<path style=" stroke:none;fill-rule:nonzero;fill:rgb(100%,53.333333%,24.313725%);fill-opacity:1;" d="M 29.597656 2.339844 L 23.828125 2.339844 L 23.828125 37.660156 L 29.597656 37.660156 C 33.671875 26.628906 33.964844 14.144531 29.597656 2.339844 Z M 29.597656 2.339844 "/>
<path style=" stroke:none;fill-rule:nonzero;fill:rgb(100%,40%,21.960784%);fill-opacity:1;" d="M 15.96875 2.339844 C 14.695312 13.628906 14.390625 26.113281 15.929688 37.660156 L 24.027344 37.660156 C 25.304688 26.371094 25.609375 13.886719 24.070312 2.339844 Z M 15.96875 2.339844 "/>
<path style=" stroke:none;fill-rule:nonzero;fill:rgb(84.313725%,88.235294%,88.235294%);fill-opacity:1;" d="M 31.488281 0.636719 L 28.933594 0.636719 L 28.085938 2.339844 L 30.195312 4.042969 L 32.746094 4.042969 C 32.371094 2.902344 31.953125 1.765625 31.488281 0.636719 Z M 31.488281 0.636719 "/>
<path style=" stroke:none;fill-rule:nonzero;fill:rgb(84.313725%,88.235294%,88.235294%);fill-opacity:1;" d="M 33.742188 7.445312 L 31.191406 7.445312 L 29.488281 8.722656 L 31.773438 10 L 34.324219 10 C 34.152344 9.148438 33.960938 8.296875 33.742188 7.445312 Z M 33.742188 7.445312 "/>
<path style=" stroke:none;fill-rule:nonzero;fill:rgb(100%,96.078431%,89.019608%);fill-opacity:1;" d="M 6.253906 7.445312 C 6.039062 8.296875 5.84375 9.148438 5.671875 10 L 31.773438 10 C 31.601562 9.148438 31.40625 8.296875 31.191406 7.445312 Z M 6.253906 7.445312 "/>
<path style=" stroke:none;fill-rule:nonzero;fill:rgb(84.313725%,88.235294%,88.235294%);fill-opacity:1;" d="M 30.195312 35.957031 L 28.085938 37.660156 L 28.933594 39.363281 L 31.488281 39.363281 C 31.949219 38.242188 32.367188 37.105469 32.746094 35.957031 Z M 30.195312 35.957031 "/>
<path style=" stroke:none;fill-rule:nonzero;fill:rgb(100%,96.078431%,89.019608%);fill-opacity:1;" d="M 8.511719 39.363281 L 28.933594 39.363281 C 29.394531 38.242188 29.816406 37.105469 30.195312 35.957031 L 7.25 35.957031 C 7.632812 37.105469 8.050781 38.242188 8.511719 39.363281 Z M 8.511719 39.363281 "/>
<path style=" stroke:none;fill-rule:nonzero;fill:rgb(84.313725%,88.235294%,88.235294%);fill-opacity:1;" d="M 31.769531 30 L 29.484375 31.277344 L 31.1875 32.554688 L 33.738281 32.554688 C 33.957031 31.707031 34.148438 30.855469 34.320312 30 Z M 31.769531 30 "/>
<path style=" stroke:none;fill-rule:nonzero;fill:rgb(100%,96.078431%,89.019608%);fill-opacity:1;" d="M 5.675781 30 C 5.851562 30.855469 6.042969 31.707031 6.257812 32.554688 L 31.1875 32.554688 C 31.402344 31.707031 31.597656 30.855469 31.769531 30 Z M 5.675781 30 "/>
<path style=" stroke:none;fill-rule:nonzero;fill:rgb(100%,96.078431%,89.019608%);fill-opacity:1;" d="M 8.511719 0.636719 C 8.046875 1.765625 7.628906 2.902344 7.25 4.042969 L 30.195312 4.042969 C 29.816406 2.902344 29.398438 1.765625 28.933594 0.636719 Z M 8.511719 0.636719 "/>
<path style=" stroke:none;fill-rule:nonzero;fill:rgb(0%,0%,0%);fill-opacity:1;" d="M 32.078125 0.394531 C 31.980469 0.15625 31.746094 0 31.488281 0 L 8.511719 0 C 8.25 0 8.019531 0.15625 7.917969 0.394531 C 6.664062 3.460938 5.695312 6.648438 5.046875 9.875 C 4.976562 10.21875 5.289062 10.566406 5.632812 10.632812 L 14.59375 10.636719 C 14.171875 17.148438 14.140625 23.4375 14.5 29.363281 L 6.203125 29.363281 C 5.160156 23.863281 5.035156 18.210938 5.859375 12.648438 C 5.910156 12.296875 5.671875 11.972656 5.320312 11.921875 C 4.972656 11.871094 4.648438 12.109375 4.597656 12.460938 C 3.238281 21.617188 4.390625 31.003906 7.917969 39.605469 C 8.019531 39.84375 8.25 40 8.511719 40 L 31.488281 40 C 31.746094 40 31.980469 39.84375 32.078125 39.605469 C 34.601562 33.457031 35.90625 26.980469 35.957031 20.359375 C 36.007812 13.5 34.703125 6.785156 32.078125 0.394531 Z M 32.285156 4.679688 C 32.511719 5.386719 32.722656 6.097656 32.917969 6.808594 L 25.210938 6.808594 C 25.144531 6.089844 25.074219 5.378906 24.996094 4.679688 Z M 8.941406 1.277344 L 31.058594 1.277344 C 31.339844 1.980469 31.605469 2.691406 31.855469 3.402344 L 8.140625 3.402344 C 8.390625 2.6875 8.660156 1.980469 8.941406 1.277344 Z M 23.929688 6.808594 L 16.164062 6.808594 C 16.226562 6.09375 16.292969 5.382812 16.363281 4.679688 L 23.710938 4.679688 C 23.789062 5.378906 23.863281 6.089844 23.929688 6.808594 Z M 7.714844 4.679688 L 15.078125 4.679688 C 15.011719 5.382812 14.945312 6.09375 14.882812 6.808594 L 7.085938 6.808594 C 7.277344 6.09375 7.488281 5.386719 7.714844 4.679688 Z M 6.460938 9.363281 C 6.550781 8.933594 6.652344 8.507812 6.753906 8.085938 L 33.25 8.085938 C 33.351562 8.511719 33.453125 8.933594 33.546875 9.363281 Z M 7.71875 35.320312 C 7.492188 34.613281 7.28125 33.90625 7.085938 33.191406 L 14.789062 33.191406 C 14.851562 33.910156 14.925781 34.621094 15 35.320312 Z M 31.058594 38.722656 L 8.941406 38.722656 C 8.65625 38.019531 8.394531 37.308594 8.144531 36.597656 L 15.714844 36.597656 C 15.714844 36.597656 24.210938 36.597656 24.210938 36.597656 C 24.214844 36.597656 31.855469 36.597656 31.855469 36.597656 C 31.605469 37.308594 31.339844 38.019531 31.058594 38.722656 Z M 16.070312 33.191406 L 23.835938 33.191406 C 23.773438 33.90625 23.707031 34.617188 23.636719 35.320312 L 16.285156 35.320312 C 16.207031 34.621094 16.136719 33.910156 16.070312 33.191406 Z M 32.285156 35.320312 L 24.917969 35.320312 C 24.988281 34.617188 25.054688 33.90625 25.117188 33.191406 L 32.917969 33.191406 C 32.722656 33.902344 32.511719 34.613281 32.285156 35.320312 Z M 33.25 31.914062 L 24.523438 31.914062 C 24.519531 31.914062 24.519531 31.914062 24.515625 31.914062 L 15.382812 31.914062 C 15.378906 31.914062 6.757812 31.914062 6.757812 31.914062 C 6.65625 31.492188 6.554688 31.066406 6.464844 30.636719 L 33.546875 30.636719 C 33.453125 31.066406 33.351562 31.488281 33.25 31.914062 Z M 33.804688 29.363281 L 25.40625 29.363281 C 25.578125 26.695312 25.6875 24.03125 25.726562 21.429688 C 25.734375 21.078125 25.453125 20.789062 25.097656 20.78125 C 25.09375 20.78125 25.09375 20.78125 25.089844 20.78125 C 24.742188 20.78125 24.457031 21.0625 24.449219 21.410156 C 24.410156 24.015625 24.300781 26.6875 24.125 29.363281 L 15.777344 29.363281 C 15.417969 23.445312 15.449219 17.152344 15.871094 10.636719 L 24.222656 10.636719 C 24.382812 13.296875 24.46875 16.0625 24.46875 18.867188 C 24.46875 19.21875 24.757812 19.507812 25.109375 19.507812 C 25.460938 19.503906 25.746094 19.21875 25.746094 18.867188 C 25.742188 16.0625 25.660156 13.296875 25.5 10.636719 L 33.804688 10.636719 C 34.988281 16.832031 34.988281 23.167969 33.804688 29.363281 Z M 33.804688 29.363281 "/>
<path style=" stroke:none;fill-rule:nonzero;fill:rgb(0%,0%,0%);fill-opacity:1;" d="M 5.632812 10.632812 C 5.605469 10.632812 5.660156 10.640625 5.632812 10.632812 Z M 5.632812 10.632812 "/>
<path style=" stroke:none;fill-rule:nonzero;fill:rgb(0%,0%,0%);fill-opacity:1;" d="M 11.523438 24.253906 C 11.523438 24.609375 11.238281 24.894531 10.886719 24.894531 C 10.535156 24.894531 10.25 24.609375 10.25 24.253906 C 10.25 23.902344 10.535156 23.617188 10.886719 23.617188 C 11.238281 23.617188 11.523438 23.902344 11.523438 24.253906 Z M 11.523438 24.253906 "/>
<path style=" stroke:none;fill-rule:nonzero;fill:rgb(0%,0%,0%);fill-opacity:1;" d="M 8.972656 26.808594 C 8.972656 27.160156 8.6875 27.445312 8.332031 27.445312 C 7.980469 27.445312 7.695312 27.160156 7.695312 26.808594 C 7.695312 26.457031 7.980469 26.171875 8.332031 26.171875 C 8.6875 26.171875 8.972656 26.457031 8.972656 26.808594 Z M 8.972656 26.808594 "/>
<path style=" stroke:none;fill-rule:nonzero;fill:rgb(0%,0%,0%);fill-opacity:1;" d="M 32.304688 13.191406 C 32.304688 13.542969 32.019531 13.828125 31.664062 13.828125 C 31.3125 13.828125 31.027344 13.542969 31.027344 13.191406 C 31.027344 12.839844 31.3125 12.554688 31.664062 12.554688 C 32.019531 12.554688 32.304688 12.839844 32.304688 13.191406 Z M 32.304688 13.191406 "/>
</g>
</svg>
